<svg width="169" height="27" viewBox="0 0 169 27" fill="none" xmlns="http://www.w3.org/2000/svg">
<path d="M19.7551 23.625C19.5752 23.6257 19.3977 23.5833 19.2376 23.5012L13.5001 20.4975L7.7626 23.5012C7.57629 23.5992 7.36624 23.6429 7.15631 23.6275C6.94638 23.612 6.74501 23.5379 6.57508 23.4137C6.40515 23.2895 6.27348 23.1201 6.19504 22.9247C6.1166 22.7294 6.09453 22.516 6.13135 22.3087L7.25635 15.975L2.62135 11.475C2.47674 11.3307 2.37415 11.1497 2.32461 10.9515C2.27506 10.7533 2.28041 10.5454 2.3401 10.35C2.4053 10.15 2.52525 9.97238 2.68632 9.83716C2.84739 9.70194 3.04314 9.61458 3.25135 9.58499L9.66385 8.65124L12.4876 2.87999C12.5797 2.68978 12.7236 2.52937 12.9026 2.41713C13.0817 2.30489 13.2888 2.24536 13.5001 2.24536C13.7114 2.24536 13.9185 2.30489 14.0976 2.41713C14.2766 2.52937 14.4205 2.68978 14.5126 2.87999L17.3701 8.63999L23.7826 9.57374C23.9908 9.60333 24.1866 9.6907 24.3476 9.82592C24.5087 9.96114 24.6286 10.1388 24.6939 10.3387C24.7535 10.5341 24.7589 10.7421 24.7093 10.9403C24.6598 11.1385 24.5572 11.3194 24.4126 11.4637L19.7776 15.9637L20.9026 22.2975C20.9428 22.5084 20.9217 22.7264 20.842 22.9257C20.7623 23.1251 20.6271 23.2975 20.4526 23.4225C20.2489 23.5652 20.0036 23.6365 19.7551 23.625Z" fill="#2E6DFE"/>
<path d="M55.4866 23.625C55.3001 23.6257 55.116 23.5833 54.95 23.5012L49 20.4975L43.05 23.5012C42.8568 23.5992 42.6389 23.6429 42.4212 23.6275C42.2035 23.612 41.9947 23.5379 41.8185 23.4137C41.6422 23.2895 41.5057 23.1201 41.4244 22.9247C41.343 22.7294 41.3201 22.516 41.3583 22.3087L42.525 15.975L37.7183 11.475C37.5683 11.3307 37.462 11.1497 37.4106 10.9515C37.3592 10.7533 37.3647 10.5454 37.4266 10.35C37.4943 10.15 37.6186 9.97238 37.7857 9.83716C37.9527 9.70194 38.1557 9.61458 38.3716 9.58499L45.0216 8.65124L47.95 2.87999C48.0455 2.68978 48.1947 2.52937 48.3804 2.41713C48.5661 2.30489 48.7808 2.24536 49 2.24536C49.2191 2.24536 49.4339 2.30489 49.6196 2.41713C49.8053 2.52937 49.9544 2.68978 50.05 2.87999L53.0133 8.63999L59.6633 9.57374C59.8792 9.60333 60.0822 9.6907 60.2493 9.82592C60.4163 9.96114 60.5407 10.1388 60.6083 10.3387C60.6702 10.5341 60.6758 10.7421 60.6244 10.9403C60.573 11.1385 60.4666 11.3194 60.3166 11.4637L55.51 15.9637L56.6766 22.2975C56.7183 22.5084 56.6965 22.7264 56.6138 22.9257C56.5311 23.1251 56.391 23.2975 56.21 23.4225C55.9987 23.5652 55.7443 23.6365 55.4866 23.625Z" fill="#2E6DFE"/>
<path d="M90.7551 23.625C90.5752 23.6257 90.3977 23.5833 90.2376 23.5012L84.5001 20.4975L78.7626 23.5012C78.5763 23.5992 78.3662 23.6429 78.1563 23.6275C77.9464 23.612 77.745 23.5379 77.5751 23.4137C77.4052 23.2895 77.2735 23.1201 77.195 22.9247C77.1166 22.7294 77.0945 22.516 77.1313 22.3087L78.2563 15.975L73.6213 11.475C73.4767 11.3307 73.3742 11.1497 73.3246 10.9515C73.2751 10.7533 73.2804 10.5454 73.3401 10.35C73.4053 10.15 73.5252 9.97238 73.6863 9.83716C73.8474 9.70194 74.0431 9.61458 74.2513 9.58499L80.6638 8.65124L83.4876 2.87999C83.5797 2.68978 83.7236 2.52937 83.9026 2.41713C84.0817 2.30489 84.2888 2.24536 84.5001 2.24536C84.7114 2.24536 84.9185 2.30489 85.0976 2.41713C85.2766 2.52937 85.4205 2.68978 85.5126 2.87999L88.3701 8.63999L94.7826 9.57374C94.9908 9.60333 95.1866 9.6907 95.3476 9.82592C95.5087 9.96114 95.6286 10.1388 95.6939 10.3387C95.7535 10.5341 95.7589 10.7421 95.7093 10.9403C95.6598 11.1385 95.5572 11.3194 95.4126 11.4637L90.7776 15.9637L91.9026 22.2975C91.9428 22.5084 91.9217 22.7264 91.842 22.9257C91.7623 23.1251 91.6271 23.2975 91.4526 23.4225C91.2489 23.5652 91.0036 23.6365 90.7551 23.625Z" fill="#2E6DFE"/>
<path d="M126.487 23.625C126.3 23.6257 126.116 23.5833 125.95 23.5012L120 20.4975L114.05 23.5012C113.857 23.5992 113.639 23.6429 113.421 23.6275C113.204 23.612 112.995 23.5379 112.818 23.4137C112.642 23.2895 112.506 23.1201 112.424 22.9247C112.343 22.7294 112.32 22.516 112.358 22.3087L113.525 15.975L108.718 11.475C108.568 11.3307 108.462 11.1497 108.411 10.9515C108.359 10.7533 108.365 10.5454 108.427 10.35C108.494 10.15 108.619 9.97238 108.786 9.83716C108.953 9.70194 109.156 9.61458 109.372 9.58499L116.022 8.65124L118.95 2.87999C119.045 2.68978 119.195 2.52937 119.38 2.41713C119.566 2.30489 119.781 2.24536 120 2.24536C120.219 2.24536 120.434 2.30489 120.62 2.41713C120.805 2.52937 120.954 2.68978 121.05 2.87999L124.013 8.63999L130.663 9.57374C130.879 9.60333 131.082 9.6907 131.249 9.82592C131.416 9.96114 131.541 10.1388 131.608 10.3387C131.67 10.5341 131.676 10.7421 131.624 10.9403C131.573 11.1385 131.467 11.3194 131.317 11.4637L126.51 15.9637L127.677 22.2975C127.718 22.5084 127.696 22.7264 127.614 22.9257C127.531 23.1251 127.391 23.2975 127.21 23.4225C126.999 23.5652 126.744 23.6365 126.487 23.625Z" fill="#2E6DFE"/>
<path d="M161.755 23.625C161.575 23.6257 161.398 23.5833 161.238 23.5012L155.5 20.4975L149.763 23.5012C149.576 23.5992 149.366 23.6429 149.156 23.6275C148.946 23.612 148.745 23.5379 148.575 23.4137C148.405 23.2895 148.273 23.1201 148.195 22.9247C148.117 22.7294 148.095 22.516 148.131 22.3087L149.256 15.975L144.621 11.475C144.477 11.3307 144.374 11.1497 144.325 10.9515C144.275 10.7533 144.28 10.5454 144.34 10.35C144.405 10.15 144.525 9.97238 144.686 9.83716C144.847 9.70194 145.043 9.61458 145.251 9.58499L151.664 8.65124L154.488 2.87999C154.58 2.68978 154.724 2.52937 154.903 2.41713C155.082 2.30489 155.289 2.24536 155.5 2.24536C155.711 2.24536 155.919 2.30489 156.098 2.41713C156.277 2.52937 156.42 2.68978 156.513 2.87999L159.37 8.63999L165.783 9.57374C165.991 9.60333 166.187 9.6907 166.348 9.82592C166.509 9.96114 166.629 10.1388 166.694 10.3387C166.754 10.5341 166.759 10.7421 166.709 10.9403C166.66 11.1385 166.557 11.3194 166.413 11.4637L161.778 15.9637L162.903 22.2975C162.943 22.5084 162.922 22.7264 162.842 22.9257C162.762 23.1251 162.627 23.2975 162.453 23.4225C162.249 23.5652 162.004 23.6365 161.755 23.625Z" fill="#2E6DFE"/>
</svg>
